/* XPM */
static char * start_xpm[] = {
"48 32 2 1",
" 	c None",
".	c #9AB0C9",
"                                                ",
"                                                ",
"                                                ",
"                                                ",
"     .................    ...           ...     ",
"     .................    ...           ...     ",
"     .................    ...           ...     ",
"     ...                  ...           ...     ",
"     ...                  ...           ...     ",
"     ...                  ...           ...     ",
"     ...                  ...           ...     ",
"     ...                  .......       ...     ",
"     ...                  .......       ...     ",
"     ...                  .......       ...     ",
"     ...                  ...           ...     ",
"     .................    ...    ...    ...     ",
"     .................    ...    ...    ...     ",
"     .................    ...    ...    ...     ",
"     ...                  ...        ......     ",
"     ...                  ...        ......     ",
"     ...                  ...        ......     ",
"     ...                  ...           ...     ",
"     ...                  ...           ...     ",
"     ...                  ...           ...     ",
"     ...                  ...           ...     ",
"     ...                  ...           ...     ",
"     .................    ...           ...     ",
"     .................    ...           ...     ",
"     .................    ...           ...     ",
"                                                ",
"                                                ",
"                                                "};
