/* XPM */
static char * closeI_xpm[] = {
"26 58 20 1",
" 	c None",
".	c #2B2B2B",
"+	c #353535",
"@	c #434343",
"#	c #4C4C4C",
"$	c #505050",
"%	c #363636",
"&	c #313131",
"*	c #484848",
"=	c #525252",
"-	c #494949",
";	c #4F4F4F",
">	c #535353",
",	c #A0A0A0",
"'	c #676767",
")	c #A1A1A1",
"!	c #AFAFAF",
"~	c #686868",
"{	c #424242",
"]	c #303030",
"..........................",
"..........................",
"..........................",
"..........................",
"..........................",
"..........................",
".........+@#$$#@%.........",
".......&*========-&.......",
"......+$==========$+......",
".....&$============;&.....",
".....*===>======>===*.....",
"....+===>,'====')>===%....",
"....@===='!~=='!~===={....",
"....#====='!~'!~=====#....",
"....$======'!!'======$....",
"....$======'!!'======;....",
"....#====='!~'!~=====#....",
"....@===='!~=='!~===={....",
"....%===>,'====',>===+....",
".....*===>======>===-.....",
".....];============;&.....",
"......+;==========;+......",
".......&*========*&.......",
".........%{#$$#{+.........",
"..........................",
"..........................",
"..........................",
"..........................",
"..........................",
"..........................",
"..........................",
"..........................",
"..........................",
"..........................",
"..........................",
".........+@#$$#@%.........",
".......&*========-&.......",
"......+$==========$+......",
".....&$============;&.....",
".....*===>======>===*.....",
"....+===>,'====')>===%....",
"....@===='!~=='!~===={....",
"....#====='!~'!~=====#....",
"....$======'!!'======$....",
"....$======'!!'======;....",
"....#====='!~'!~=====#....",
"....@===='!~=='!~===={....",
"....%===>,'====',>===+....",
".....*===>======>===-.....",
".....];============;&.....",
"......+;==========;+......",
".......&*========*&.......",
".........%{#$$#{+.........",
"..........................",
"..........................",
"..........................",
"..........................",
".........................."};
