/* XPM */
static char * frameAT_xpm[] = {
"1 34 2 1",
" 	c None",
".	c #2B2B2B",
" ",
" ",
" ",
".",
".",
".",
".",
".",
".",
".",
".",
".",
".",
".",
".",
".",
".",
".",
".",
".",
".",
".",
".",
".",
".",
".",
".",
".",
".",
".",
".",
".",
".",
"."};
