/* XPM */
static char * restoreI_xpm[] = {
"26 58 4 1",
" 	c None",
".	c #2B2B2B",
"+	c #525252",
"@	c #2C2C2C",
"..........................",
"..........................",
"..........................",
"..........................",
"..........................",
"..........................",
"..........................",
"..........................",
"..........................",
"..........................",
"..........................",
"...........++++++.........",
"................+.........",
".........++++++.+.........",
".........+....+.+.........",
".........+....+.+.........",
".........+....+.+.........",
".........+....+...........",
".........++++++...........",
"..........................",
"..........................",
"..........................",
"..........................",
"..........................",
"..........................",
"..........................",
"..........................",
"..........................",
"..........................",
"..........................",
"..........................",
"..........................",
"..........................",
"..........................",
"..........................",
".........@................",
"..........................",
"..........................",
"..........................",
"..........................",
"...........++++++.........",
"................+.........",
".........++++++.+.........",
".........+....+.+.........",
".........+....+.+.........",
".........+....+.+.........",
".........+....+...........",
".........++++++...........",
"..........................",
"....................@.....",
"..........................",
"..........................",
"..........................",
"..........................",
"..........................",
"..........................",
"..........................",
".........................."};
