/* XPM */
static char * restoreO_xpm[] = {
"26 58 36 1",
" 	c None",
".	c #2B2B2B",
"+	c #343434",
"@	c #3F3F3F",
"#	c #474747",
"$	c #4B4B4B",
"%	c #303030",
"&	c #444444",
"*	c #4C4C4C",
"=	c #333333",
"-	c #4A4A4A",
";	c #FEFEFE",
">	c #3E3E3E",
",	c #434343",
"'	c #2F2F2F",
")	c #494949",
"!	c #6B6B6B",
"~	c #848484",
"{	c #909090",
"]	c #6A6A6A",
"^	c #3B3B3B",
"/	c #7A7A7A",
"(	c #949494",
"_	c #3A3A3A",
":	c #454545",
"<	c #8D8D8D",
"[	c #797979",
"}	c #6C6C6C",
"|	c #8F8F8F",
"1	c #8E8E8E",
"2	c #C9C9C9",
"3	c #838383",
"4	c #696969",
"5	c #464646",
"6	c #383838",
"7	c #8B8B8B",
"..........................",
"..........................",
"..........................",
"..........................",
"..........................",
"..........................",
".........+@#$$#@+.........",
".......%&********&%.......",
"......=-**********-=......",
".....%-************-%.....",
".....&**************&.....",
"....+******;;;;;;****+....",
"....@***********;****@....",
"....#****;;;;;;*;****#....",
"....-****;****;*;****-....",
"....-****;****;*;****-....",
"....#****;****;*;****#....",
"....@****;****;******>....",
"....+****;;;;;;******+....",
".....,**************&.....",
".....')************-%.....",
"......=-**********-=......",
".......%&********&%.......",
".........+@#--#@+.........",
"..........................",
"..........................",
"..........................",
"..........................",
"..........................",
"..........................",
"..........................",
"..........................",
"..........................",
"..........................",
"..........................",
".........#!~{{~]#.........",
".......^/((((((((/_.......",
"......:<((((((((((<&......",
".....^<((((((((((((<_.....",
".....[((((((((((((((/.....",
"....#((((((;;;;;;((((#....",
"....}(((((((((((;((((]....",
"....~((((;;;;;;(;((((~....",
"....|((((;((((;(;((((|....",
"....|((((;((((;(;((((1....",
"....~((((;((((;(2((((3....",
"....!((((;((((;((((((4....",
"....#((((;;;;;;((((((5....",
".....[((((((((((((((/.....",
".....67((((((((((((<_.....",
"......&<((((((((((<&......",
"......._/(((((((([_.......",
".........#]3||3]5.........",
"..........................",
"..........................",
"..........................",
"..........................",
".........................."};
