/* XPM */
static char * closeO_xpm[] = {
"26 58 70 1",
" 	c None",
".	c #2B2B2B",
"+	c #4E463F",
"@	c #7A695A",
"#	c #9A816D",
"$	c #A88C75",
"%	c #99806C",
"&	c #796859",
"*	c #4E4640",
"=	c #3F3A37",
"-	c #8D7765",
";	c #AD9078",
">	c #3E3A36",
",	c #4B443E",
"'	c #A48973",
")	c #4A433E",
"!	c #3D3936",
"~	c #8C7664",
"{	c #AD9079",
"]	c #E7E0D9",
"^	c #BDA692",
"/	c #4D4640",
"(	c #7B695A",
"_	c #BCA591",
":	c #F3EFEB",
"<	c #BEA794",
"[	c #796759",
"}	c #A78B74",
"|	c #F2EEEB",
"1	c #A58A73",
"2	c #98806C",
"3	c #786759",
"4	c #4D453F",
"5	c #8B7664",
"6	c #3B3835",
"7	c #A28872",
"8	c #403A36",
"9	c #5B4E45",
"0	c #6D5D4F",
"a	c #766353",
"b	c #6D5C4F",
"c	c #5A4E44",
"d	c #403B37",
"e	c #373432",
"f	c #66564A",
"g	c #796555",
"h	c #66574B",
"i	c #373431",
"j	c #746152",
"k	c #3E3935",
"l	c #736152",
"m	c #363331",
"n	c #65564A",
"o	c #7A6656",
"p	c #D9D3CF",
"q	c #938376",
"r	c #403B36",
"s	c #5B4F45",
"t	c #928275",
"u	c #ECE9E7",
"v	c #958578",
"w	c #756253",
"x	c #EBE8E6",
"y	c #948478",
"z	c #6D5C4E",
"A	c #594D44",
"B	c #D9D4CF",
"C	c #3F3A36",
"D	c #353230",
"E	c #736051",
"..........................",
"..........................",
"..........................",
"..........................",
"..........................",
"..........................",
".........+@#$$%&*.........",
".......=-;;;;;;;;->.......",
"......,';;;;;;;;;;')......",
".....=';;;;;;;;;;;;'!.....",
".....~;;;{;;;;;;{;;;-.....",
"....+;;;{]^;;;;^]{;;;/....",
"....(;;;;_:<;;_:<;;;;[....",
"....#;;;;;_:<_:<;;;;;%....",
"....};;;;;;^::^;;;;;;}....",
"....};;;;;;^||^;;;;;;1....",
"....#;;;;;_:<_:<;;;;;2....",
"....@;;;;_:<;;_:<;;;;3....",
"....*;;;{]^;;;;^]{;;;4....",
".....5;;;{;;;;;;{;;;-.....",
".....67;;;;;;;;;;;;'!.....",
"......)';;;;;;;;;;')......",
".......>-;;;;;;;;~!.......",
"........./[2}}2[4.........",
"..........................",
"..........................",
"..........................",
"..........................",
"..........................",
"..........................",
"..........................",
"..........................",
"..........................",
"..........................",
"..........................",
".........890aabcd.........",
".......efgggggggghi.......",
"......>jggggggggggjk......",
".....ejgggggggggggglm.....",
".....ngggoggggggogggf.....",
"....8gggopqggggqpogggr....",
"....sggggtuvggtuvggggc....",
"....0gggggtuvtuvgggggb....",
"....wggggggqxxqggggggw....",
"....wggggggqxxqggggggj....",
"....0gggggtuytuvgggggz....",
"....9ggggtuyggtuvggggA....",
"....dgggoBqggggqpogggC....",
".....ngggoggggggogggh.....",
".....DEgggggggggggglm.....",
"......klgggggggggglk......",
".......ihggggggggnm.......",
".........rczwwzcC.........",
"..........................",
"..........................",
"..........................",
"..........................",
".........................."};
