/* XPM */
static char * closeA_xpm[] = {
"26 58 72 1",
" 	c None",
".	c #2B2B2B",
"+	c #49413A",
"@	c #705E4E",
"#	c #8B725D",
"$	c #977B63",
"%	c #8B715C",
"&	c #6F5D4E",
"*	c #4A423B",
"=	c #3C3834",
"-	c #806956",
";	c #9C7E65",
">	c #806A57",
",	c #3C3734",
"'	c #47403A",
")	c #957961",
"!	c #463F39",
"~	c #947861",
"{	c #3B3733",
"]	c #7F6956",
"^	c #9C7F66",
"/	c #E3DBD4",
"(	c #AF9783",
"_	c #49413B",
":	c #705E4F",
"<	c #AF9682",
"[	c #F0ECE9",
"}	c #B19985",
"|	c #977A62",
"1	c #F0ECE8",
"2	c #B09884",
"3	c #8A715C",
"4	c #6E5C4D",
"5	c #48413A",
"6	c #7F6856",
"7	c #393532",
"8	c #937760",
"9	c #806957",
"0	c #4E463F",
"a	c #7A695A",
"b	c #9A816D",
"c	c #A88C75",
"d	c #99806C",
"e	c #796859",
"f	c #4E4640",
"g	c #3F3A37",
"h	c #8D7765",
"i	c #AD9078",
"j	c #3E3A36",
"k	c #4B443E",
"l	c #A48973",
"m	c #4A433E",
"n	c #3D3936",
"o	c #8C7664",
"p	c #AD9079",
"q	c #E7E0D9",
"r	c #BDA692",
"s	c #4D4640",
"t	c #7B695A",
"u	c #BCA591",
"v	c #F3EFEB",
"w	c #BEA794",
"x	c #796759",
"y	c #A78B74",
"z	c #F2EEEB",
"A	c #A58A73",
"B	c #98806C",
"C	c #786759",
"D	c #4D453F",
"E	c #8B7664",
"F	c #3B3835",
"G	c #A28872",
"..........................",
"..........................",
"..........................",
"..........................",
"..........................",
"..........................",
".........+@#$$%&*.........",
".......=-;;;;;;;;>,.......",
"......');;;;;;;;;;)!......",
".....=);;;;;;;;;;;;~{.....",
".....];;;^;;;;;;^;;;-.....",
"....+;;;^/(;;;;(/^;;;_....",
"....:;;;;<[};;<[};;;;&....",
"....#;;;;;<[}<[};;;;;%....",
"....|;;;;;;([[(;;;;;;|....",
"....|;;;;;;(11(;;;;;;)....",
"....#;;;;;<[2<[};;;;;3....",
"....@;;;;<[2;;<[};;;;4....",
"....*;;;^/(;;;;(/^;;;5....",
".....6;;;^;;;;;;^;;;>.....",
".....78;;;;;;;;;;;;~{.....",
"......!~;;;;;;;;;;~!......",
".......,9;;;;;;;;]{.......",
"........._&3||3&5.........",
"..........................",
"..........................",
"..........................",
"..........................",
"..........................",
"..........................",
"..........................",
"..........................",
"..........................",
"..........................",
"..........................",
".........0abccdef.........",
".......ghiiiiiiiihj.......",
"......kliiiiiiiiiilm......",
".....gliiiiiiiiiiiiln.....",
".....oiiipiiiiiipiiih.....",
"....0iiipqriiiirqpiiis....",
"....tiiiiuvwiiuvwiiiix....",
"....biiiiiuvwuvwiiiiid....",
"....yiiiiiirvvriiiiiiy....",
"....yiiiiiirzzriiiiiiA....",
"....biiiiiuvwuvwiiiiiB....",
"....aiiiiuvwiiuvwiiiiC....",
"....fiiipqriiiirqpiiiD....",
".....Eiiipiiiiiipiiih.....",
".....FGiiiiiiiiiiiiln.....",
"......mliiiiiiiiiilm......",
".......jhiiiiiiiion.......",
".........sxByyBxD.........",
"..........................",
"..........................",
"..........................",
"..........................",
".........................."};
