/* XPM */
static char * maximizeI_xpm[] = {
"26 58 5 1",
" 	c None",
".	c #2B2B2B",
"+	c #2C2C2C",
"@	c #2D2D2D",
"#	c #525252",
"..........................",
"..........................",
"..........................",
"..........................",
"..........................",
"..........................",
"................+.........",
"..........................",
"...................+......",
"....................@.....",
"..........................",
"....+....########....+....",
".........#......#.........",
".........#......#.........",
".........#......#.........",
".........#......#.........",
".........#......#.........",
".........#......#.........",
"....+....########.........",
"..........................",
"..........................",
"......+...................",
"..........................",
".........+................",
"..........................",
"..........................",
"..........................",
"..........................",
"..........................",
"..........................",
"..........................",
"..........................",
"..........................",
"..........................",
"..........................",
"..........................",
"..........................",
"..........................",
"..........................",
"..........................",
"....+....########.........",
".........#......#.........",
".........#......#.........",
".........#......#.........",
".........#......#.........",
".........#......#.........",
".........#......#.........",
".........########....+....",
"..........................",
"..........................",
"...................+......",
"..........................",
"..........................",
"..........................",
"..........................",
"..........................",
"..........................",
".........................."};
