/* XPM */
static char * maximizeA_xpm[] = {
"26 58 7 1",
" 	c None",
".	c #2B2B2B",
"+	c #2C2C2C",
"@	c #FEFEFE",
"#	c #2D2D2D",
"$	c #2E2E2E",
"%	c #E1E1E1",
"..........................",
"..........................",
"..........................",
"..........................",
"..........................",
"..........................",
"..........................",
".................+........",
"..........................",
"..........................",
"..........................",
".........@@@@@@@@.........",
".........@......@.........",
"....+....@......@.........",
".........@......@.........",
".........@......@.........",
".........@......@.........",
".........@......@.........",
".........@@@@@@@@.........",
".....#....................",
".....+....................",
"..........................",
"..........................",
"..........................",
"..........................",
"..........................",
"..........................",
"..........................",
"..........................",
"..........................",
"..........................",
"..........................",
"..........................",
"..........................",
"..........................",
"..........................",
"..........................",
"..........................",
"..........................",
"..........................",
"....+....@@@@@@@@.........",
"....+....@......@.........",
"....+....@......@.........",
".........@......@.........",
".........@......@.........",
"....$....@......@.........",
"....#....@......@....+....",
".........@@@@@@@%.........",
"..........................",
"..........................",
"..........................",
"..........................",
"..........................",
"..........................",
"..........................",
"..........................",
"..........................",
".........................."};
