/* XPM */
static char * restoreA_xpm[] = {
"26 58 19 1",
" 	c None",
".	c #2B2B2B",
"+	c #2C2C2C",
"@	c #2D2D2D",
"#	c #2E2E2E",
"$	c #FEFEFE",
"%	c #343434",
"&	c #3F3F3F",
"*	c #474747",
"=	c #4B4B4B",
"-	c #303030",
";	c #444444",
">	c #4C4C4C",
",	c #333333",
"'	c #4A4A4A",
")	c #3E3E3E",
"!	c #434343",
"~	c #2F2F2F",
"{	c #494949",
"..........................",
"..........................",
"..........................",
"..........................",
"..........................",
"..........................",
"..........................",
".......+..................",
"......@............#......",
".....+..............#.....",
"..........................",
"...........$$$$$$....+....",
"................$.........",
".........$$$$$$.$.........",
".........$....$.$.........",
".........$....$.$.........",
".........$....$.$.........",
".........$....$...........",
"....+....$$$$$$...........",
"..........................",
".....+..............+.....",
"......@............+......",
"..........................",
".........+................",
"..........................",
"..........................",
"..........................",
"..........................",
"..........................",
"..........................",
"..........................",
"..........................",
"..........................",
"..........................",
"..........................",
".........%&*==*&%.........",
".......-;>>>>>>>>;-.......",
"......,'>>>>>>>>>>',......",
".....-'>>>>>>>>>>>>'-.....",
".....;>>>>>>>>>>>>>>;.....",
"....%>>>>>>$$$$$$>>>>%....",
"....&>>>>>>>>>>>$>>>>&....",
"....*>>>>$$$$$$>$>>>>*....",
"....'>>>>$>>>>$>$>>>>'....",
"....'>>>>$>>>>$>$>>>>'....",
"....*>>>>$>>>>$>$>>>>*....",
"....&>>>>$>>>>$>>>>>>)....",
"....%>>>>$$$$$$>>>>>>%....",
".....!>>>>>>>>>>>>>>;.....",
".....~{>>>>>>>>>>>>'-.....",
"......,'>>>>>>>>>>',......",
".......-;>>>>>>>>;-.......",
".........%&*''*&%.........",
"..........................",
"..........................",
"..........................",
"..........................",
".........................."};
