/* XPM */
static char * folder_xpm[] = {
"24 24 10 1",
" 	c None",
".	c #F0F0F0",
"+	c #FFFFFF",
"@	c #7B5A42",
"#	c #795941",
"$	c #7A5A42",
"%	c #926B4E",
"&	c #997052",
"*	c #7B5942",
"=	c #916B4E",
"                        ",
"                        ",
"                        ",
"     .+++.              ",
"     +++++              ",
"    .++++++++++++++.    ",
"  @##################$  ",
" $%&&&&&&&&&&&&&&&&&&%* ",
" #&&&&&&&&&&&&&&&&&&&&# ",
" #&&&&&&&&&&&&&&&&&&&&# ",
" #&&&&&&&&&&&&&&&&&&&&# ",
" #&&&&&&&&&&&&&&&&&&&&# ",
" #&&&&&&&&&&&&&&&&&&&&# ",
" #&&&&&&&&&&&&&&&&&&&&# ",
" #&&&&&&&&&&&&&&&&&&&&# ",
" #&&&&&&&&&&&&&&&&&&&&# ",
" #&&&&&&&&&&&&&&&&&&&&# ",
" #&&&&&&&&&&&&&&&&&&&&# ",
" #&&&&&&&&&&&&&&&&&&&&# ",
" $%&&&&&&&&&&&&&&&&&&=* ",
"  $##################*  ",
"                        ",
"                        ",
"                        "};
