/* XPM */
static char * focus_xpm[] = {
"24 24 69 1",
" 	c None",
".	c #000000",
"+	c #2A2A2A",
"@	c #C3C3C3",
"#	c #616161",
"$	c #BBBBBB",
"%	c #FFFFFF",
"&	c #5E5E5E",
"*	c #BABABA",
"=	c #626262",
"-	c #B7B7B7",
";	c #FDFDFD",
">	c #0C0C0C",
",	c #B5B5B5",
"'	c #F9F9F9",
")	c #FCFCFC",
"!	c #363636",
"~	c #B3B3B3",
"{	c #F6F6F6",
"]	c #494949",
"^	c #010101",
"/	c #B0B0B0",
"(	c #F4F4F4",
"_	c #FAFAFA",
":	c #FBFBFB",
"<	c #AFAFAF",
"[	c #F1F1F1",
"}	c #F7F7F7",
"|	c #F5F5F5",
"1	c #101010",
"2	c #080808",
"3	c #ACACAC",
"4	c #EEEEEE",
"5	c #343434",
"6	c #040404",
"7	c #AAAAAA",
"8	c #EBEBEB",
"9	c #A8A8A8",
"0	c #E8E8E8",
"a	c #F3F3F3",
"b	c #373737",
"c	c #A6A6A6",
"d	c #E5E5E5",
"e	c #A4A4A4",
"f	c #E3E3E3",
"g	c #F2F2F2",
"h	c #C0C0C0",
"i	c #A2A2A2",
"j	c #DFDFDF",
"k	c #EDEDED",
"l	c #828282",
"m	c #9F9F9F",
"n	c #DEDEDE",
"o	c #707070",
"p	c #232323",
"q	c #474747",
"r	c #969696",
"s	c #1E1E1E",
"t	c #A7A7A7",
"u	c #5B5B5B",
"v	c #6B6B6B",
"w	c #454545",
"x	c #1D1D1D",
"y	c #424242",
"z	c #F8F8F8",
"A	c #6A6A6A",
"B	c #4D4D4D",
"C	c #868686",
"D	c #020202",
"                        ",
"      ..                ",
"      .+.               ",
"      .@#.              ",
"      .$%&.             ",
"      .*%%=.            ",
"      .-;%%>.           ",
"      .,'%%)!.          ",
"      .~{;%%%]^         ",
"      ./(_%%%:..        ",
"      .<[};%%%|12       ",
"      .34(_%%%%|56      ",
"      .78[};%%%%4..     ",
"      .904(_%%%%%ab.    ",
"      .cd8[';<.......   ",
"      .ef0gh:}..        ",
"      .ijkl.g%9+        ",
"      .mnopqr%|s        ",
"      .tu.. .0%vw       ",
"      .x>   yc){.       ",
"      ..     .z%A.      ",
"      .      .BC..      ",
"              ..D       ",
"                        "};
