/* XPM */
static char * logout_xpm[] = {
"24 24 147 2",
"  	c None",
". 	c #090809",
"+ 	c #0A080A",
"@ 	c #080709",
"# 	c #08080A",
"$ 	c #131114",
"% 	c #38343B",
"& 	c #4B454E",
"* 	c #4F4A53",
"= 	c #37343B",
"- 	c #464049",
"; 	c #3C3640",
"> 	c #36303A",
", 	c #342E38",
"' 	c #121114",
") 	c #080809",
"! 	c #332E35",
"~ 	c #352F39",
"{ 	c #332D37",
"] 	c #5B565E",
"^ 	c #858187",
"/ 	c #98959A",
"( 	c #5C575F",
"_ 	c #322E35",
": 	c #36313B",
"< 	c #322C37",
"[ 	c #69646C",
"} 	c #D6D5D7",
"| 	c #FFFFFF",
"1 	c #D4D3D5",
"2 	c #5F5A63",
"3 	c #37313C",
"4 	c #342D38",
"5 	c #322B36",
"6 	c #848086",
"7 	c #FDFDFD",
"8 	c #EEEEEF",
"9 	c #B6B4B8",
"0 	c #A4A1A6",
"a 	c #B7B5B9",
"b 	c #F0EFF0",
"c 	c #FAFAFA",
"d 	c #7E7980",
"e 	c #312A35",
"f 	c #67626A",
"g 	c #FEFEFE",
"h 	c #9F9CA1",
"i 	c #49424C",
"j 	c #3D3741",
"k 	c #3C353F",
"l 	c #A7A4A9",
"m 	c #5D5861",
"n 	c #302934",
"o 	c #DBD9DB",
"p 	c #3A333E",
"q 	c #3B343E",
"r 	c #A6A3A8",
"s 	c #B4B2B6",
"t 	c #2F2934",
"u 	c #59545D",
"v 	c #ECEBEC",
"w 	c #3D3742",
"x 	c #88858B",
"y 	c #55505A",
"z 	c #2F2833",
"A 	c #868289",
"B 	c #413B45",
"C 	c #979499",
"D 	c #9E9BA0",
"E 	c #A19EA3",
"F 	c #3F3943",
"G 	c #080708",
"H 	c #2E2732",
"I 	c #98949A",
"J 	c #A09DA2",
"K 	c #8D8A90",
"L 	c #8B878D",
"M 	c #2D2632",
"N 	c #89848C",
"O 	c #433D48",
"P 	c #969298",
"Q 	c #9A969C",
"R 	c #433C47",
"S 	c #070708",
"T 	c #2C2531",
"U 	c #5A555E",
"V 	c #F0F0F1",
"W 	c #332D38",
"X 	c #2E2733",
"Y 	c #352E3A",
"Z 	c #362F3B",
"` 	c #39323E",
" .	c #8A858C",
"..	c #56505A",
"+.	c #070608",
"@.	c #2C2430",
"#.	c #302834",
"$.	c #D7D5D7",
"%.	c #9C989E",
"&.	c #A3A0A5",
"*.	c #B3B0B5",
"=.	c #2B2430",
"-.	c #6A656D",
";.	c #FCFCFC",
">.	c #9D9A9F",
",.	c #A5A2A7",
"'.	c #F8F8F8",
").	c #5D5962",
"!.	c #2A232F",
"~.	c #2F2834",
"{.	c #848087",
"].	c #F3F2F3",
"^.	c #B8B6BA",
"/.	c #F3F3F4",
"(.	c #7E7A81",
"_.	c #29222E",
":.	c #6B666E",
"<.	c #CFCDD0",
"[.	c #CDCBCE",
"}.	c #615C65",
"|.	c #302935",
"1.	c #2B242F",
"2.	c #29212D",
"3.	c #2E2632",
"4.	c #39323D",
"5.	c #5A545D",
"6.	c #817C83",
"7.	c #938F95",
"8.	c #2D2531",
"9.	c #2C2530",
"0.	c #060508",
"a.	c #252029",
"b.	c #29212E",
"c.	c #28202D",
"d.	c #2B2330",
"e.	c #312A36",
"f.	c #252028",
"g.	c #0C0A0D",
"h.	c #2E2633",
"i.	c #271F2C",
"j.	c #0B090C",
"k.	c #262129",
"l.	c #38313C",
"m.	c #3B3440",
"n.	c #040304",
"o.	c #050306",
"p.	c #040305",
"                                                ",
"        . + @ @ @ @ @ @ @ @ @ @ @ @ # .         ",
"      $ % & * * * * * * * * * * * * & = $       ",
"    $ - ; > , , , , , , , , , , , , > ; - '     ",
"  ) ! ~ { { { { { ] ^ / ^ ( { { { { { { ~ _ )   ",
"  # : < < < < [ } | | | | | 1 2 < < < < < 3 #   ",
"  @ 4 5 5 5 6 7 | 8 9 0 a b | c d 5 5 5 5 4 @   ",
"  @ e e e f 7 g h i j k j i l g c m e e e e @   ",
"  @ n n e o | h p e n n n e q r | s n n n n @   ",
"  @ t t u | v w t t t t t t t ; x y t t t t @   ",
"  @ z z A | a z z z z z B C D D E h C F z z @   ",
"  G H H I | J H H H H H K | | | | | | L H H G   ",
"  G M M N | 9 M M M M M O P Q Q Q Q P R M M G   ",
"  S T T U | V W T T T T X Y Z `  ...Y X T T S   ",
"  +.@.@.#.$.| %.@.@.@.@.@.@.@.&.| *.@.@.@.@.+.  ",
"  +.=.=.=.-.;.| >.Y =.=.=.Y ,.| '.).=.=.=.=.+.  ",
"  +.!.!.!.~.{.;.| ].9 E ^./.| '.(.X !.!.!.!.+.  ",
"  +.!._._._.e :.<.g | | | g [.}.|._._._._.!.+.  ",
"  +.1.2.2.2.2.3.4.5.6.7.6.5.4.8.2.2.2.2.2.9.+.  ",
"  0.a.b.c.c.c.c.c.d.#.e.#.d.c.c.c.c.c.c.b.f.0.  ",
"    g.~ h.c.i.i.i.i.i.i.i.i.i.i.i.i.c.h.~ g.    ",
"      j.k.l.m.m.m.m.m.m.m.m.m.m.m.m.l.k.j.      ",
"        n.o.p.p.p.p.p.p.p.p.p.p.p.p.o.n.        ",
"                                                "};
