/* XPM */
static char * themes_xpm[] = {
"24 24 420 2",
"  	c None",
". 	c #1E0038",
"+ 	c #230048",
"@ 	c #200049",
"# 	c #1D014A",
"$ 	c #1D034A",
"% 	c #1C064A",
"& 	c #1C0A4C",
"* 	c #1C114C",
"= 	c #1B1B4D",
"- 	c #1B264F",
"; 	c #1B3251",
"> 	c #1B3B52",
", 	c #1B4353",
"' 	c #1C4854",
") 	c #143C42",
"! 	c #410664",
"~ 	c #6617A2",
"{ 	c #7120BB",
"] 	c #6E23C4",
"^ 	c #6923C7",
"/ 	c #6624C8",
"( 	c #6328C9",
"_ 	c #6230CA",
": 	c #613BCC",
"< 	c #604DCF",
"[ 	c #5F63D2",
"} 	c #607DD6",
"| 	c #5F97D8",
"1 	c #5FACDC",
"2 	c #5EBDDE",
"3 	c #5BC3DD",
"4 	c #4DB3C3",
"5 	c #2B737E",
"6 	c #4E075E",
"7 	c #861DAC",
"8 	c #770EAF",
"9 	c #6905B2",
"0 	c #5F03B6",
"a 	c #5803BA",
"b 	c #5205BD",
"c 	c #4F0AC0",
"d 	c #4B12C2",
"e 	c #4922C5",
"f 	c #4836C9",
"g 	c #4752CB",
"h 	c #476FD0",
"i 	c #478CD3",
"j 	c #47A4D7",
"k 	c #46B7D9",
"l 	c #48C2DB",
"m 	c #4ECBDC",
"n 	c #58CCDA",
"o 	c #2A747C",
"p 	c #300230",
"q 	c #85158E",
"r 	c #8909A2",
"s 	c #7D06A6",
"t 	c #7205AB",
"u 	c #6804B2",
"v 	c #5F05B6",
"w 	c #5807BA",
"x 	c #520CBE",
"y 	c #4F16C1",
"z 	c #4B27C4",
"A 	c #493DC7",
"B 	c #4859CB",
"C 	c #4777D0",
"D 	c #4A94D4",
"E 	c #A3D3EA",
"F 	c #E8F7FA",
"G 	c #D7F2F7",
"H 	c #6DD4DF",
"I 	c #4ACDD7",
"J 	c #4AB5BD",
"K 	c #41043A",
"L 	c #9D1196",
"M 	c #94089B",
"N 	c #8A07A1",
"O 	c #7E06A6",
"P 	c #7306AC",
"Q 	c #6806B1",
"R 	c #5F09B7",
"S 	c #590FBB",
"T 	c #521BBE",
"U 	c #4E2CC2",
"V 	c #4B44C6",
"W 	c #4A60CA",
"X 	c #4C80CE",
"Y 	c #CCE2F2",
"Z 	c #FFFFFF",
"` 	c #E3F6F7",
" .	c #4ACDCF",
"..	c #4FCBCB",
"+.	c #1D5150",
"@.	c #460439",
"#.	c #A70C92",
"$.	c #9E0995",
"%.	c #95089B",
"&.	c #8A07A0",
"*.	c #7F07A6",
"=.	c #7308AB",
"-.	c #690CB1",
";.	c #6013B6",
">.	c #5820BB",
",.	c #5333BF",
"'.	c #504CC3",
").	c #4D69C6",
"!.	c #A7C3E4",
"~.	c #E8F5F4",
"{.	c #4FCFC3",
"].	c #51D0C1",
"^.	c #20524B",
"/.	c #480538",
"(.	c #AD0B8E",
"_.	c #A70A90",
":.	c #A00A95",
"<.	c #960999",
"[.	c #8B099E",
"}.	c #800BA4",
"|.	c #740FAA",
"1.	c #6A18AF",
"2.	c #672EB7",
"3.	c #7B61C6",
"4.	c #5756BD",
"5.	c #5B78C1",
"6.	c #F3F7FA",
"7.	c #A3D5CA",
"8.	c #54CFAE",
"9.	c #55D0A9",
"0.	c #225243",
"a.	c #4A0537",
"b.	c #B20C8A",
"c.	c #AE0B8C",
"d.	c #A80B90",
"e.	c #A10B93",
"f.	c #970C97",
"g.	c #8C0E9C",
"h.	c #8114A1",
"i.	c #761DA6",
"j.	c #8D5DBE",
"k.	c #FAF9FC",
"l.	c #F2F2F9",
"m.	c #E2E8F1",
"n.	c #D6EAE2",
"o.	c #54BA8C",
"p.	c #5CD194",
"q.	c #5ED28F",
"r.	c #255437",
"s.	c #B70D88",
"t.	c #B40D89",
"u.	c #B00D8A",
"v.	c #AA0D8D",
"w.	c #A20E8F",
"x.	c #991193",
"y.	c #8F1997",
"z.	c #85249B",
"A.	c #763397",
"B.	c #8B77A5",
"C.	c #FAFAFB",
"D.	c #FDFEFD",
"E.	c #BADBC6",
"F.	c #58B274",
"G.	c #64D27C",
"H.	c #65D476",
"I.	c #67D56F",
"J.	c #29542B",
"K.	c #4B0534",
"L.	c #BB0E84",
"M.	c #B90E84",
"N.	c #B70F85",
"O.	c #B11085",
"P.	c #AD1387",
"Q.	c #A51788",
"R.	c #9E1F8A",
"S.	c #952C8C",
"T.	c #8C3F8D",
"U.	c #A88DAD",
"V.	c #C9C7CD",
"W.	c #FBFCFB",
"X.	c #C2D7C5",
"Y.	c #65A66A",
"Z.	c #5EB45E",
"`.	c #6BD063",
" +	c #6ED55C",
".+	c #6FD555",
"++	c #71D64F",
"@+	c #2D551D",
"#+	c #4D0733",
"$+	c #BE107E",
"%+	c #BD117D",
"&+	c #BC127D",
"*+	c #B9147D",
"=+	c #B7187D",
"-+	c #B31D7D",
";+	c #AD277D",
">+	c #A6367C",
",+	c #C38FAD",
"'+	c #FDFCFD",
")+	c #FDFDFD",
"!+	c #CCD0C4",
"~+	c #FBFCFA",
"{+	c #D8E8D0",
"]+	c #79C854",
"^+	c #79D14E",
"/+	c #78D646",
"(+	c #78D73F",
"_+	c #79D739",
":+	c #7AD833",
"<+	c #325713",
"[+	c #4D0830",
"}+	c #C21477",
"|+	c #C21676",
"1+	c #C21774",
"2+	c #C21974",
"3+	c #C11D72",
"4+	c #BD246F",
"5+	c #BB2F6D",
"6+	c #DA9BB2",
"7+	c #FFFEFE",
"8+	c #C3C6A3",
"9+	c #A5B67C",
"0+	c #FBFCF9",
"a+	c #93D24C",
"b+	c #86D535",
"c+	c #83D72D",
"d+	c #82D828",
"e+	c #81D923",
"f+	c #82DA1F",
"g+	c #34560B",
"h+	c #4F0A2D",
"i+	c #C8196E",
"j+	c #C81A6D",
"k+	c #C91C6A",
"l+	c #C91F68",
"m+	c #C92366",
"n+	c #CA2C63",
"o+	c #E6A4B6",
"p+	c #CCC0A2",
"q+	c #9F9C37",
"r+	c #9DB232",
"s+	c #9BB654",
"t+	c #97D027",
"u+	c #93D722",
"v+	c #8ED91C",
"w+	c #8BDA17",
"x+	c #88DA13",
"y+	c #87DB10",
"z+	c #355805",
"A+	c #510B29",
"B+	c #CD1E65",
"C+	c #CE1F63",
"D+	c #D02161",
"E+	c #D1255E",
"F+	c #D12C5C",
"G+	c #ECA8B7",
"H+	c #D8C0A7",
"I+	c #B48F30",
"J+	c #C4B62E",
"K+	c #BBC627",
"L+	c #AAC71F",
"M+	c #A8D61A",
"N+	c #9FD815",
"O+	c #98DB11",
"P+	c #93DB0D",
"Q+	c #8FDC0B",
"R+	c #8CDD09",
"S+	c #385903",
"T+	c #540E25",
"U+	c #D3235A",
"V+	c #D42459",
"W+	c #D62757",
"X+	c #D82D56",
"Y+	c #F1B2BE",
"Z+	c #DDBDA9",
"`+	c #C2812E",
" @	c #D9A92B",
".@	c #D3BD24",
"+@	c #CBCB1D",
"@@	c #C1D418",
"#@	c #B6D712",
"$@	c #ACDB0F",
"%@	c #A4DC0B",
"&@	c #9BDD08",
"*@	c #95DC06",
"=@	c #90DD05",
"-@	c #395901",
";@	c #570F21",
">@	c #D92853",
",@	c #DA2951",
"'@	c #DB2C50",
")@	c #F1B0BB",
"!@	c #E1B8AA",
"~@	c #CB722E",
"{@	c #E69B2C",
"]@	c #E4B124",
"^@	c #DFC21E",
"/@	c #D8CF19",
"(@	c #CFD713",
"_@	c #C5DA0F",
":@	c #B9DC0C",
"<@	c #AFDD09",
"[@	c #A5DE07",
"}@	c #9DDD05",
"|@	c #96DD04",
"1@	c #3B5901",
"2@	c #591020",
"3@	c #DD2C4E",
"4@	c #DE2D4B",
"5@	c #E96E81",
"6@	c #E1B3AA",
"7@	c #CC632F",
"8@	c #EA892E",
"9@	c #ECA227",
"0@	c #ECB720",
"a@	c #E9C71B",
"b@	c #E3D216",
"c@	c #DBD912",
"d@	c #D1DB0F",
"e@	c #C7DD0C",
"f@	c #BBDE0A",
"g@	c #B0DE07",
"h@	c #A6DD06",
"i@	c #9EDD05",
"j@	c #3D5901",
"k@	c #58111D",
"l@	c #DA314A",
"m@	c #E13047",
"n@	c #ECA3AB",
"o@	c #E0ACA7",
"p@	c #CD5532",
"q@	c #EB7732",
"r@	c #EF902B",
"s@	c #F1A824",
"t@	c #F2BC1E",
"u@	c #F0CB1A",
"v@	c #EDD515",
"w@	c #E6DA12",
"x@	c #DDDD10",
"y@	c #D2DF0E",
"z@	c #C7DF0B",
"A@	c #BBDE09",
"B@	c #B1DE07",
"C@	c #A3D60C",
"D@	c #3E5701",
"E@	c #440E14",
"F@	c #B72F42",
"G@	c #E23146",
"H@	c #EDB8BD",
"I@	c #DB999C",
"J@	c #CA6B6A",
"K@	c #CB4734",
"L@	c #E96535",
"M@	c #ED7D2F",
"N@	c #F19728",
"O@	c #F4AE22",
"P@	c #F6C21D",
"Q@	c #F6CF18",
"R@	c #F3D715",
"S@	c #EEDD13",
"T@	c #E8DF11",
"U@	c #DFE00F",
"V@	c #D4DF0D",
"W@	c #C9DF0B",
"X@	c #BEDF0A",
"Y@	c #93B411",
"Z@	c #6A1A22",
"`@	c #DD3E4F",
" #	c #C8353F",
".#	c #CC373B",
"+#	c #DA413B",
"@#	c #E75539",
"##	c #EB6A33",
"$#	c #EE832D",
"%#	c #F39C26",
"&#	c #F6B321",
"*#	c #F8C51C",
"=#	c #F9D118",
"-#	c #F7DA16",
";#	c #F4DD14",
">#	c #EFDF12",
",#	c #E8E011",
"'#	c #DFE010",
")#	c #D6E015",
"!#	c #C7DA1D",
"~#	c #586608",
"{#	c #5D171E",
"]#	c #B6373F",
"^#	c #DF4C4F",
"/#	c #EA5A51",
"(#	c #EB694D",
"_#	c #EE7D47",
":#	c #F19442",
"<#	c #F5AA3A",
"[#	c #F7BE36",
"}#	c #FBCE32",
"|#	c #FCD930",
"1#	c #FBDF2D",
"2#	c #FAE22B",
"3#	c #F6E32A",
"4#	c #F2E429",
"5#	c #E3DB26",
"6#	c #B3B31A",
"7#	c #595B09",
"8#	c #2D0C0D",
"9#	c #390F0F",
"0#	c #3D1410",
"a#	c #3E180F",
"b#	c #3E1D0D",
"c#	c #40250B",
"d#	c #412C0A",
"e#	c #423109",
"f#	c #423607",
"g#	c #433906",
"h#	c #433A06",
"i#	c #433C06",
"j#	c #433D06",
"k#	c #423D05",
"l#	c #3B3705",
"m#	c #2D2C03",
"                                                ",
"        . + @ # # $ % & * = - ; > , ' )         ",
"      ! ~ { ] ^ / ( _ : < [ } | 1 2 3 4 5       ",
"    6 7 8 9 0 a b c d e f g h i j k l m n o     ",
"  p q r s t u v w x y z A B C D E F G H I J     ",
"  K L M N O P Q R S T U V W X Y Z Z Z `  ...+.  ",
"  @.#.$.%.&.*.=.-.;.>.,.'.).!.Z Z Z Z ~.{.].^.  ",
"  /.(._.:.<.[.}.|.1.2.3.4.5.6.Z Z Z Z 7.8.9.0.  ",
"  a.b.c.d.e.f.g.h.i.j.k.l.m.Z Z Z Z n.o.p.q.r.  ",
"  a.s.t.u.v.w.x.y.z.A.B.C.Z Z Z D.E.F.G.H.I.J.  ",
"  K.L.M.N.O.P.Q.R.S.T.U.V.W.Z X.Y.Z.`. +.+++@+  ",
"  #+$+%+&+*+=+-+;+>+,+'+)+!+~+{+]+^+/+(+_+:+<+  ",
"  [+}+|+1+2+3+4+5+6+7+Z Z 8+9+0+a+b+c+d+e+f+g+  ",
"  h+i+j+k+l+m+n+o+Z Z Z p+q+r+s+t+u+v+w+x+y+z+  ",
"  A+B+C+D+E+F+G+Z Z Z H+I+J+K+L+M+N+O+P+Q+R+S+  ",
"  T+U+V+W+X+Y+Z Z Z Z+`+ @.@+@@@#@$@%@&@*@=@-@  ",
"  ;@>@,@'@)@Z Z Z !@~@{@]@^@/@(@_@:@<@[@}@|@1@  ",
"  2@3@4@5@Z Z Z 6@7@8@9@0@a@b@c@d@e@f@g@h@i@j@  ",
"  k@l@m@n@Z Z o@p@q@r@s@t@u@v@w@x@y@z@A@B@C@D@  ",
"  E@F@G@H@I@J@K@L@M@N@O@P@Q@R@S@T@U@V@W@X@Y@    ",
"    Z@`@ #.#+#@###$#%#&#*#=#-#;#>#,#'#)#!#~#    ",
"      {#]#^#/#(#_#:#<#[#}#|#1#2#3#4#5#6#7#      ",
"        8#9#0#a#b#c#d#e#f#g#h#i#j#k#l#m#        ",
"                                                "};
