/* XPM */
static char * system_restart_xpm[] = {
"24 24 13 1",
" 	c None",
".	c #D3DAE4",
"+	c #D3DAE3",
"@	c #D3D9E2",
"#	c #D3DBE3",
"$	c #D3DAE2",
"%	c #D4DAE4",
"&	c #D4DBE3",
"*	c #D4DBE4",
"=	c #D2D9E3",
"-	c #D1D9E2",
";	c #D5DBE4",
">	c #D3D9E3",
"                        ",
"                        ",
"                        ",
"                        ",
"                        ",
"         .++@           ",
"        ++++#           ",
"       $$+              ",
"      #+                ",
"      %&                ",
"     *#                 ",
"     =+                 ",
"     =+                 ",
"     -+                 ",
"      %                 ",
"      -=                ",
"       ;@               ",
"         >>>>           ",
"                        ",
"                        ",
"                        ",
"                        ",
"                        ",
"                        "};
