/* XPM */
static char * shutdown_xpm[] = {
"24 24 166 2",
"  	c None",
". 	c #46120C",
"+ 	c #591711",
"@ 	c #581811",
"# 	c #581711",
"$ 	c #82241A",
"% 	c #C94234",
"& 	c #E25042",
"* 	c #E75345",
"= 	c #83241A",
"- 	c #822219",
"; 	c #E1493C",
"> 	c #E43F2F",
", 	c #E33929",
"' 	c #E33727",
") 	c #812219",
"! 	c #46100C",
"~ 	c #C73A2D",
"{ 	c #E23727",
"] 	c #E23525",
"^ 	c #F9D7D3",
"/ 	c #F9D3D0",
"( 	c #C6392D",
"_ 	c #59130E",
": 	c #DE3629",
"< 	c #E13123",
"[ 	c #E44437",
"} 	c #E34235",
"| 	c #E13224",
"1 	c #FFFFFF",
"2 	c #FFFEFE",
"3 	c #DD372A",
"4 	c #5A130E",
"5 	c #DF3023",
"6 	c #DF2E21",
"7 	c #E97269",
"8 	c #FDF3F3",
"9 	c #FBE5E3",
"0 	c #DF2F22",
"a 	c #FBE6E5",
"b 	c #FDF3F2",
"c 	c #E97067",
"d 	c #5A120C",
"e 	c #DE2B1E",
"f 	c #E96F66",
"g 	c #E0A19D",
"h 	c #DE2C1F",
"i 	c #E1A49F",
"j 	c #E86D64",
"k 	c #5A100B",
"l 	c #DD281C",
"m 	c #E03C31",
"n 	c #FCF2F2",
"o 	c #D48580",
"p 	c #C42319",
"q 	c #DD291D",
"r 	c #C32319",
"s 	c #D58782",
"t 	c #FCF1F1",
"u 	c #E03B30",
"v 	c #590F0B",
"w 	c #DC261A",
"x 	c #EB918B",
"y 	c #E7BAB7",
"z 	c #C82318",
"A 	c #DC271B",
"B 	c #C72218",
"C 	c #E7BCB9",
"D 	c #EB8E88",
"E 	c #590E0A",
"F 	c #DA2218",
"G 	c #F4D6D4",
"H 	c #CD5650",
"I 	c #EBC6C4",
"J 	c #E9C2C0",
"K 	c #CD5A54",
"L 	c #F3D2D0",
"M 	c #590C0A",
"N 	c #D91F16",
"O 	c #FBF3F3",
"P 	c #D12922",
"Q 	c #B91A13",
"R 	c #BA1B13",
"S 	c #D12D26",
"T 	c #FAEFEE",
"U 	c #570B08",
"V 	c #D81C14",
"W 	c #FAF0F0",
"X 	c #D72922",
"Y 	c #D82D26",
"Z 	c #F9EDEC",
"` 	c #570B07",
" .	c #D71912",
"..	c #EFD0CF",
"+.	c #DF5651",
"@.	c #E05A55",
"#.	c #EECCCB",
"$.	c #560A07",
"%.	c #D51710",
"&.	c #D7827F",
"*.	c #EFBAB8",
"=.	c #F0BDBB",
"-.	c #D67F7C",
";.	c #560805",
">.	c #D4130E",
",.	c #C52622",
"'.	c #E8817E",
").	c #E98481",
"!.	c #FAF1F1",
"~.	c #C62420",
"{.	c #560705",
"].	c #D3100C",
"^.	c #D0100C",
"/.	c #C75D5B",
"(.	c #FEFCFC",
"_.	c #F2B8B7",
":.	c #DF5351",
"<.	c #D6211D",
"[.	c #D6221E",
"}.	c #E05653",
"|.	c #F3BCBB",
"1.	c #550504",
"2.	c #D20E0A",
"3.	c #D20D09",
"4.	c #C40C08",
"5.	c #C55A58",
"6.	c #FAF2F1",
"7.	c #FAF1F0",
"8.	c #C45856",
"9.	c #540403",
"0.	c #CA100D",
"a.	c #D00A07",
"b.	c #C20907",
"c.	c #B01D1B",
"d.	c #D38483",
"e.	c #ECCCCB",
"f.	c #F9EFEE",
"g.	c #D28180",
"h.	c #B01B1A",
"i.	c #C30907",
"j.	c #C9110E",
"k.	c #520303",
"l.	c #3E0202",
"m.	c #AA1110",
"n.	c #CF0906",
"o.	c #CF0805",
"p.	c #CC0805",
"q.	c #BA0704",
"r.	c #AF0704",
"s.	c #A80604",
"t.	c #BB0705",
"u.	c #A91110",
"v.	c #610605",
"w.	c #CA1716",
"x.	c #D00C0B",
"y.	c #CE0504",
"z.	c #CE0403",
"A.	c #5F0605",
"B.	c #560303",
"C.	c #A61010",
"D.	c #CA1818",
"E.	c #D21A1A",
"F.	c #550303",
"G.	c #280000",
"H.	c #340000",
"I.	c #380000",
"                                                ",
"        . + @ @ @ @ @ @ @ @ @ @ @ @ # .         ",
"      $ % & * * * * * * * * * * * * & % =       ",
"    - ; > , ' ' ' ' ' ' ' ' ' ' ' ' , > ; )     ",
"  ! ~ { ] ] ] ] ] ] ] ^ / ] ] ] ] ] ] ] { (     ",
"  _ : < < < < < [ } | 1 2 < } [ < < < < < 3 _   ",
"  4 5 6 6 6 6 7 8 9 0 1 2 6 a b c 6 6 6 6 5 4   ",
"  d e e e e f 2 1 g h 1 2 e i 1 2 j e e e e d   ",
"  k l l l m n 1 o p q 1 2 l r s 1 t u l l l k   ",
"  v w w w x 1 y z w A 1 2 w w B C 1 D w w w v   ",
"  E F F F G 1 H F F F I J F F F K 1 L F F F E   ",
"  M N N N O 1 P N N N Q R N N N S 1 T N N N M   ",
"  U V V V W 1 X V V V V V V V V Y 1 Z V V V U   ",
"  `  . . ...1 +. . . . . . . . .@.1 #. . . .`   ",
"  $.%.%.%.&.1 *.%.%.%.%.%.%.%.%.=.1 -.%.%.%.$.  ",
"  ;.>.>.>.,.O 1 '.>.>.>.>.>.>.).1 !.~.>.>.>.;.  ",
"  {.].].].^./.(.1 _.:.<.[.}.|.1 (./.^.].].].{.  ",
"  1.2.3.3.3.4.5.6.1 1 1 1 1 1 7.8.4.3.3.3.2.1.  ",
"  9.0.a.a.a.a.b.c.d.e.f.W e.g.h.i.a.a.a.a.j.k.  ",
"  l.m.n.o.o.o.o.p.q.r.s.s.r.t.p.o.o.o.o.n.u.    ",
"    v.w.x.y.z.z.z.z.z.z.z.z.z.z.z.z.y.x.w.A.    ",
"      B.C.D.E.E.E.E.E.E.E.E.E.E.E.E.D.C.F.      ",
"        G.H.I.I.I.I.I.I.I.I.I.I.I.I.H.G.        ",
"                                                "};
