/* XPM */
static char * system_reboot_xpm[] = {
"24 24 132 2",
"  	c None",
". 	c #090809",
"+ 	c #0A080A",
"@ 	c #080709",
"# 	c #08080A",
"$ 	c #131114",
"% 	c #38343B",
"& 	c #4B454E",
"* 	c #4F4A53",
"= 	c #37343B",
"- 	c #464049",
"; 	c #3C3640",
"> 	c #36303A",
", 	c #342E38",
"' 	c #121114",
") 	c #080809",
"! 	c #332E35",
"~ 	c #352F39",
"{ 	c #332D37",
"] 	c #322E35",
"^ 	c #36313B",
"/ 	c #322C37",
"( 	c #37313C",
"_ 	c #342D38",
": 	c #322B36",
"< 	c #645F67",
"[ 	c #B3B1B5",
"} 	c #D4D3D5",
"| 	c #CDCBCE",
"1 	c #ADAAAF",
"2 	c #5C565F",
"3 	c #312A35",
"4 	c #352E39",
"5 	c #B2B0B4",
"6 	c #FFFFFF",
"7 	c #DFDEE0",
"8 	c #B6B4B8",
"9 	c #BBB9BC",
"0 	c #E4E3E4",
"a 	c #8D898F",
"b 	c #302934",
"c 	c #B4B2B6",
"d 	c #FAF9FA",
"e 	c #8A868C",
"f 	c #423C46",
"g 	c #3D3641",
"h 	c #423D46",
"i 	c #7E7A81",
"j 	c #5D5760",
"k 	c #2F2934",
"l 	c #59555D",
"m 	c #8E8B91",
"n 	c #332D38",
"o 	c #48434D",
"p 	c #6F6A72",
"q 	c #2F2833",
"r 	c #ADAAAE",
"s 	c #E5E4E6",
"t 	c #39323D",
"u 	c #C7C6C8",
"v 	c #EEEEEF",
"w 	c #403A44",
"x 	c #080708",
"y 	c #2E2732",
"z 	c #D0CED1",
"A 	c #BCBABE",
"B 	c #827E85",
"C 	c #BFBDC0",
"D 	c #2D2632",
"E 	c #B7B5B9",
"F 	c #7F7A82",
"G 	c #352F3A",
"H 	c #BFBCC0",
"I 	c #D0CFD1",
"J 	c #3B3440",
"K 	c #070708",
"L 	c #2C2531",
"M 	c #49434D",
"N 	c #EFEEEF",
"O 	c #CBC9CC",
"P 	c #2E2833",
"Q 	c #E5E5E6",
"R 	c #AEABB0",
"S 	c #070608",
"T 	c #2C2430",
"U 	c #2E2632",
"V 	c #78737B",
"W 	c #524B56",
"X 	c #817C84",
"Y 	c #FEFEFE",
"Z 	c #5E5961",
"` 	c #2B2430",
" .	c #312A36",
"..	c #2D2732",
"+.	c #554F59",
"@.	c #706B73",
"#.	c #807C83",
"$.	c #F9F9FA",
"%.	c #B9B6BA",
"&.	c #2F2834",
"*.	c #2A232F",
"=.	c #8B888E",
"-.	c #E3E2E3",
";.	c #B5B3B7",
">.	c #DEDDDF",
",.	c #3C3641",
"'.	c #29222E",
").	c #635E66",
"!.	c #AEACB0",
"~.	c #CDCCCF",
"{.	c #6E6971",
"].	c #362F3A",
"^.	c #2B242F",
"/.	c #29212D",
"(.	c #2D2531",
"_.	c #362E39",
":.	c #3A323D",
"<.	c #2C2530",
"[.	c #060508",
"}.	c #252029",
"|.	c #29212E",
"1.	c #28202D",
"2.	c #252028",
"3.	c #0C0A0D",
"4.	c #2E2633",
"5.	c #271F2C",
"6.	c #0B090C",
"7.	c #262129",
"8.	c #38313C",
"9.	c #040304",
"0.	c #050306",
"a.	c #040305",
"                                                ",
"        . + @ @ @ @ @ @ @ @ @ @ @ @ # .         ",
"      $ % & * * * * * * * * * * * * & = $       ",
"    $ - ; > , , , , , , , , , , , , > ; - '     ",
"  ) ! ~ { { { { { { { { { { { { { { { { ~ ] )   ",
"  # ^ / / / / / / / / / / / / / / / / / / ( #   ",
"  @ _ : : : : : : < [ } | 1 2 : : : : : : _ @   ",
"  @ 3 3 3 3 3 4 5 6 7 8 9 0 6 a 3 3 3 3 3 3 @   ",
"  @ b b b b b c d e f ; g h i j b b b b b b @   ",
"  @ k k k k l 6 m ^ k k k k > n o p k k k k @   ",
"  @ q q q q r s t q q q q q q b u v w q q q @   ",
"  x y y y y z A y y y y y y y B 6 6 C y y y x   ",
"  x D D D E 6 6 F D D D D D D G H I J D D D x   ",
"  K L L L M N O G L L L L L L P Q R L L L L K   ",
"  S T T T U V W T T T T T T T X Y Z T T T T S   ",
"  S ` ` ` `  ...+.@...` ` L #.$.%.&.` ` ` ` S   ",
"  S *.*.*.*.*.*.=.Y -.;.R >.6 R ,.*.*.*.*.*.S   ",
"  S *.'.'.'.'.'./ ).!.~.} c {.].*.'.'.'.'.*.S   ",
"  S ^././././././.(._.t :._.U /./././././.<.S   ",
"  [.}.|.1.1.1.1.1.1.1.1.1.1.1.1.1.1.1.1.|.2.[.  ",
"    3.~ 4.1.5.5.5.5.5.5.5.5.5.5.5.5.1.4.~ 3.    ",
"      6.7.8.J J J J J J J J J J J J 8.7.6.      ",
"        9.0.a.a.a.a.a.a.a.a.a.a.a.a.0.9.        ",
"                                                "};
