/* XPM */
static char * desktop_xpm[] = {
"20 20 27 1",
" 	c None",
".	c #7B5A42",
"+	c #795841",
"@	c #795941",
"#	c #7A5942",
"$	c #7D5C43",
"%	c #7D5B43",
"&	c #785941",
"*	c #5E4533",
"=	c #604633",
"-	c #5F4533",
";	c #7A5941",
">	c #89654A",
",	c #896449",
"'	c #7A5A42",
")	c #9B7253",
"!	c #9A7152",
"~	c #9A7153",
"{	c #785840",
"]	c #997052",
"^	c #997152",
"/	c #9A7053",
"(	c #9B7153",
"_	c #987051",
":	c #785741",
"<	c #7B5943",
"[	c #7D5D42",
"                    ",
"                    ",
".+@@@@@@@@@@@@@@@@+#",
"+@................@+",
"@$%%%%%%%%%%%%%%%%$@",
"&*================-;",
"@>,,,,,,,,,,,,,,,,,@",
"')!!!!!!!!!!!!!!!!~{",
"'~]]]]]]]]]]]]]]]]]{",
"'~]]]]]]]]]]]]]]]]]{",
"'~]]]]]]]]]]]]]]]]]{",
"'~]]]]]]]]]]]]]]]]]{",
"'~]]]]]]]]]]]]]]]]]{",
"'~]]]]]]]]]]]]]]]]]{",
"'~]]]]]]]]]]]]]]]]]{",
"'~]]]]]]]]]]]]]]]]]{",
"'~]]]]]]]]]]]]]]]]^{",
";/((((((((((((((((_:",
"<;'''''''''''''''';[",
"                    "};
