/* XPM */
static char * windows_xpm[] = {
"18 16 10 1",
" 	c None",
".	c #F7F8F9",
"+	c #FDFDFE",
"@	c #9C7E65",
"#	c #FBFCFD",
"$	c #FFFFFF",
"%	c #FBFBFC",
"&	c #E6EBF7",
"*	c #E7ECF7",
"=	c #E0E4F0",
"                  ",
"                  ",
" .++++++@@++++++. ",
" #$$$$$$@@$$$$$$# ",
" #$$$$$$@@$$$$$$# ",
" #$$$$$$@@$$$$$$# ",
" %$$$$$$@@$$$$$$% ",
" @@@@@@@@@@@@@@@@ ",
" @@@@@@@@@@@@@@@@ ",
" @@@@&$$$$$$&@@@@ ",
" @@@@*$$$$$$*@@@@ ",
" @@@@*$$$$$$*@@@@ ",
" @@@@*$$$$$$*@@@@ ",
" @@@@=++++++=@@@@ ",
"                  ",
"                  "};
